<?xml version="1.0" encoding="UTF-8"?>
<svg id="Layer_1" xmlns="http://www.w3.org/2000/svg" viewBox="0 0 782 264">
  <defs>
    <style>
      .cls-1 {
        fill: #fff;
      }

      .cls-2 {
        fill: #1d1d28;
      }
    </style>
  </defs>
  <rect class="cls-2" x="-3" y="-4" width="784" height="268"/>
  <g>
    <path class="cls-1" d="M405,186V46c1,0,2,0,3,0,34,0,69,0,103,0,9,0,18,3,26,7,12,6,22,15,28,27,4,7,6,15,7,24,2,13,0,24-6,36-4,8-1,14-17,2,12,16,24,31,36,48-2,0-3,0-5,0-2,0-39,0-59,0-3,0-5-1-7-3-1-13-2-27-3-4-1-13-2-27-3-4,0,1,0,2,0,3,0,25,0,51,0,76,0,3,0,4-4,4-33,0-67,0-1,0-23,0-46,0-69,0,3-5,5-9,8-13,7-11,14-21,2-32,1-2,3-3,5-3,5,0,1,0,15,0-6-9-11-17-17-26-16,25-31,49-46,73h-56c34-54,68-107,102-161,3,47,6,94,9,141h0ZM456,12s0,0,0,0c18,0,35,0,53,0,6,0,12-5,11-14,0-5-6-1-12-1-16,0-33,0-49,0-1,0-2,0-4,0v24Z"/>
    <path class="cls-1" d="M57,207V45c1,0,2,0,3,0,32,0,64,0,95,0,18,0,35,5,5,16,14,1,24,23,3,4,4,12,5,23,3,36-2,14-7,26-15,38-9,13-22,22-37,27-9,3-18,5-28,5-34,0-67,0-101,0,0,0,0,0-2,0ZM107,158c1,0,2,0,4,0,17,0,33,0,5,0,0,0,0,0,0,0,15-2,28-16,27-32,0-1-5-18-13-24-6-5-14-6-22-6-15,0-29,0-44,0h-4v63Z"/>
    <path class="cls-1" d="M638,96c-2,0-3,0-4,0-17,0-34,0-51,0-3,0-4,0-4-4,0-14,0-29,0-43,0-3,0-4,4-4,53,0,107,0,16,0,3,0,3,0,3,3,0,15,0,29,0,44,0,3,0,3-3,3-17,0-34,0-51,0-1,0-3,0-4,0,0,2,0,3,0,5,0,34,0,68,0,102q0,4-4,4c-14,0-28,0-42,0q-4,0-4-4c0-34,0-68,0-102,0-1,0-3,0-5Z"/>
  </g>
</svg>