<?xml version="1.0" encoding="UTF-8"?>
<svg xmlns="http://www.w3.org/2000/svg" version="1.1" viewBox="0 0 1202.58 403.75">
  <defs>
    <style>
      .cls-1 {
        fill: #fff;
      }

      .cls-2 {
        fill: #1d1d28;
      }
    </style>
  </defs>
  <!-- Generator: Adobe Illustrator 28.7.10, SVG Export Plug-In . SVG Version: 1.2.0 Build 236)  -->
  <g>
    <g id="Layer_1">
      <rect class="cls-2" x="-6.1" y="-7.24" width="1215.8" height="415.59"/>
      <g>
        <path class="cls-1" d="M617.95,282.87V66.26c1.69-.12,3.12-.31,4.56-.32,53.45-.13,106.9-.4,160.36-.24,14.17.04,27.73,4.17,40.13,10.85,18.47,9.94,33.65,23.66,43.67,42.41,6.11,11.44,9.48,23.72,11.11,36.64,2.45,19.45-.8,37.78-9.34,55.26-6.04,12.35-15.07,22.34-25.8,31.67,18.41,24.17,36.87,48.41,56.13,73.71-3.35.23-5.24.46-7.12.46-30.31.02-60.62-.15-90.93.18-5.01.05-7.97-1.79-10.63-5.39-15.24-20.62-30.41-41.29-45.8-61.8-15.49-20.64-31.21-41.12-47.24-62.21-.1,1.69-.22,2.87-.22,4.06,0,39.47-.08,78.93.09,118.4.02,4.51-1.16,5.91-5.8,5.89-51.79-.16-103.59-.1-155.38-.1-35.46,0-70.92,0-107.41,0,4.33-7.1,8.08-13.48,12.06-19.71,10.42-16.31,21.03-32.49,31.33-48.86,1.98-3.14,3.96-4.62,7.81-4.45,7.47.33,14.97.1,23.91.1-8.63-13.7-16.78-26.63-25.62-40.67-24.32,38.31-47.98,75.61-71.74,113.04h-87.12c52.96-83.37,105.65-166.32,158.81-250,46.61,73.12,92.84,145.66,139.07,218.19l1.13-.48ZM696.94,180.83c.73.31,1.02.55,1.32.55,27.28.04,54.56.25,81.84,0,8.64-.08,19-8.28,17.43-22.13-.88-7.8-9.54-15.38-18.89-15.38-25.29,0-50.57,0-75.86,0-1.9,0-3.8,0-5.84,0v36.97Z"/>
        <path class="cls-1" d="M78.37,315.94V65.18c1.85-.09,3.6-.24,5.35-.24,49.29-.02,98.58-.42,147.86.12,28.31.31,54.7,7.76,78.07,24.73,21.88,15.89,37.42,36.29,46.02,61.84,6.02,17.9,7.26,36.28,5.17,55.09-2.41,21.69-10.62,41.01-23.48,58.18-14.63,19.53-33.67,33.8-56.66,42.41-13.93,5.22-28.29,8.11-43.31,8.16-52.23.15-104.45.58-156.68.89-.63,0-1.26-.21-2.35-.4ZM156.04,240.8c2.19,0,3.84,0,5.49,0,25.95,0,51.91,0,77.86,0,.5,0,1.01.03,1.5-.05,23.43-3.83,43.95-24.52,42.35-50.24-.98-15.86-8.19-27.8-20.39-37.02-9.78-7.38-21.23-10.02-33.39-9.99-22.63.06-45.25.02-67.88.02h-5.53v97.29Z"/>
        <path class="cls-1" d="M978.3,143.85c-2.62,0-4.58,0-6.54,0-26.15,0-52.3-.09-78.45.08-4.38.03-6.12-.93-6.07-5.75.24-22.31.2-44.63.02-66.95-.03-4.29,1.13-5.75,5.61-5.75,82.78.13,165.55.13,248.33.03,4.15,0,5.41,1.31,5.38,5.42-.16,22.65-.17,45.3,0,67.94.03,4.04-1.33,5.05-5.16,5.03-26.15-.13-52.3-.07-78.45-.06-1.95,0-3.89,0-6.42,0,0,2.89,0,5.18,0,7.46,0,52.63,0,105.25,0,157.88q0,6.52-6.46,6.54c-21.65,0-43.3,0-64.96,0q-6.83,0-6.85-6.66c0-52.63,0-105.25,0-157.88,0-2.15,0-4.3,0-7.34Z"/>
      </g>
    </g>
  </g>
</svg>